<?xml version="1.0" encoding="UTF-8"?>
<svg width="1024px" height="1024px" viewBox="0 0 1024 1024" version="1.1" xmlns="http://www.w3.org/2000/svg" xmlns:xlink="http://www.w3.org/1999/xlink">
    <!-- Generator: Sketch 52.5 (67469) - http://www.bohemiancoding.com/sketch -->
    <title>Group</title>
    <desc>Created with Sketch.</desc>
    <g id="Page-1" stroke="none" stroke-width="1" fill="none" fill-rule="evenodd">
        <g id="Group" fill-rule="nonzero">
            <rect id="Rectangle" fill="#000000" x="0" y="0" width="1024" height="1024"></rect>
            <g id="pinea-logo-white" transform="translate(58.000000, 45.000000)" fill="#FFFFFF">
                <path d="M908.116881,476.094065 C905.616881,573.494065 875.516881,668.794065 811.016881,753.394065 C770.216881,806.894065 719.716881,847.094065 661.416881,878.994065 C536.916881,946.894065 408.616881,948.694065 279.916881,895.994065 C214.316881,869.094065 155.616881,827.594065 111.316881,770.994065 C-7.48311932,619.194065 -31.9831193,453.294065 41.6168807,273.994065 C59.1168807,231.494065 85.6168807,195.194065 114.416881,159.894065 C170.616881,91.1940649 243.316881,49.5940649 326.416881,21.4940649 C404.216881,-4.8059351 482.416881,-6.6059351 560.016881,14.0940649 C639.716881,35.3940649 712.616881,72.3940649 770.916881,132.894065 C861.116881,226.394065 907.416881,338.194065 908.116881,476.094065 Z M454.016881,144.694065 C476.016881,144.694065 496.016881,142.994065 515.616881,144.994065 C584.716881,152.094065 616.916881,177.394065 631.716881,237.694065 C644.916881,291.394065 643.416881,345.594065 628.116881,398.794065 C618.216881,433.394065 597.616881,462.294065 566.216881,480.194065 C534.816881,498.094065 499.016881,513.994065 464.816881,529.794065 C419.216881,550.994065 373.350214,571.727398 327.216881,591.994065 C318.016881,595.994065 314.716881,600.894065 314.816881,610.894065 C315.416881,661.294065 314.716881,711.594065 315.616881,761.894065 C315.916881,776.394065 311.816881,780.894065 297.416881,780.094065 C274.216881,778.894065 250.916881,779.794065 227.416881,779.794065 L227.416881,801.994065 C229.816881,802.694065 231.216881,803.394065 232.616881,803.394065 L531.716881,803.694065 C539.016881,803.794065 542.416881,801.694065 542.716881,793.594065 C543.116881,783.594065 540.416881,779.294065 529.416881,779.594065 C504.716881,780.294065 479.916881,779.794065 454.916881,779.794065 C454.516881,773.894065 454.116881,770.494065 454.116881,767.094065 C454.116881,702.294065 453.916881,637.494065 454.516881,572.694065 C454.516881,568.694065 459.416881,563.194065 463.516881,561.094065 C498.116881,542.894065 532.916881,524.994065 568.116881,507.694065 C611.416881,486.294065 655.116881,465.894065 698.616881,444.694065 C730.816881,428.994065 757.916881,408.294065 777.216881,376.394065 C805.816881,329.294065 804.216881,244.594065 752.616881,199.594065 C712.316881,164.394065 663.816881,148.694065 614.116881,137.894065 C578.016881,130.094065 539.916881,129.094065 502.716881,128.894065 C414.516881,128.394065 326.316881,130.294065 238.116881,131.294065 C234.316881,131.394065 230.516881,132.194065 227.516881,132.494065 L227.516881,158.994065 L315.416881,158.994065 L315.416881,341.594065 C343.516881,327.894065 370.416881,317.094065 394.916881,302.494065 C434.016881,279.194065 451.116881,241.894065 453.816881,197.694065 C454.816881,181.394065 454.016881,164.894065 454.016881,144.694065 Z" id="Shape"></path>
            </g>
        </g>
    </g>
</svg>