<?xml version="1.0" encoding="utf-8"?>
<!-- Generator: Adobe Illustrator 21.0.0, SVG Export Plug-In . SVG Version: 6.00 Build 0)  -->
<svg version="1.1" id="Layer_1" xmlns="http://www.w3.org/2000/svg" xmlns:xlink="http://www.w3.org/1999/xlink" x="0px" y="0px"
	 viewBox="0 0 295.5 213.3" style="enable-background:new 0 0 295.5 213.3;" xml:space="preserve">
<style type="text/css">
	.st0{fill:#FFFFFF;}
</style>
<g>
	<g>
		<g>
			<g>
				<polygon class="st0" points="181.9,39.9 158.5,39.9 158.5,16.5 172.7,16.5 172.7,31.7 167.6,31.7 167.6,20.7 163.6,20.7 
					163.6,35.7 176.8,35.7 176.8,12.6 154.5,12.6 154.5,39.9 149.4,39.9 149.4,8.4 181.9,8.4 				"/>
			</g>
			<g>
				<polygon class="st0" points="112.2,39.9 135.7,39.9 135.7,16.5 121.4,16.5 121.4,31.7 126.5,31.7 126.5,20.7 130.6,20.7 
					130.6,35.7 117.4,35.7 117.4,12.6 139.6,12.6 139.6,39.9 144.7,39.9 144.7,8.4 112.2,8.4 				"/>
			</g>
		</g>
		<g>
			<path class="st0" d="M2.7,58.3h11.2l12,32.4l12-32.4h10.9l-18.6,46.4h-8.9L2.7,58.3z"/>
			<path class="st0" d="M56,58.3h34.7v9H66.1v9.3h21.7v9H66.1v9.7h25v9H56V58.3z"/>
			<path class="st0" d="M100.1,58.3h21c5.9,0,10.4,1.6,13.4,4.7c2.6,2.6,3.9,6.2,3.9,10.5v0.1c0,7.4-4,12.1-9.9,14.3l11.2,16.4H128
				l-9.9-14.7H118h-7.8v14.7h-10.1V58.3z M120.5,80.7c4.9,0,7.8-2.6,7.8-6.5v-0.1c0-4.3-3-6.6-8-6.6h-10.1v13.2H120.5z"/>
			<path class="st0" d="M148.1,58.3h10.1v46h-10.1V58.3z"/>
			<path class="st0" d="M180.4,67.7h-14v-9.3h38.1v9.3h-14v36.7h-10.1V67.7z"/>
			<path class="st0" d="M220.9,58h9.3l19.7,46.4h-10.6L235.2,94h-19.5l-4.2,10.3h-10.3L220.9,58z M231.5,85.1l-6.1-14.9l-6.1,14.9
				H231.5z"/>
			<path class="st0" d="M253.2,97.7l6-7.2c4.1,3.4,8.5,5.6,13.7,5.6c4.1,0,6.6-1.6,6.6-4.3v-0.1c0-2.6-1.6-3.9-9.3-5.9
				c-9.3-2.4-15.3-4.9-15.3-14.1v-0.1c0-8.4,6.7-13.9,16.1-13.9c6.7,0,12.4,2.1,17.1,5.9l-5.3,7.6c-4.1-2.8-8.1-4.5-12-4.5
				s-5.9,1.8-5.9,4v0.1c0,3,2,4,9.9,6.1c9.3,2.4,14.6,5.8,14.6,13.8v0.1c0,9.1-7,14.3-16.9,14.3C265.8,105,258.8,102.6,253.2,97.7z"
				/>
		</g>
		<g>
			<g>
				<path class="st0" d="M77,127.4v-13.3h1.6c1.6,0,3,0.2,3,3.3c0,1.3-0.3,2.6-1.5,3.2v-0.1c1.5,0.4,1.8,1.7,1.8,3.3
					c0,2.8-0.9,3.6-3.4,3.6H77z M78.1,120h0.3c0.9,0,1.9,0.2,1.9-2.5c0-2.1-0.5-2.3-1.9-2.3h-0.3V120z M78.1,126.4h0.3
					c1.7,0,2.2-0.6,2.2-2.5c0-2.2-0.7-2.8-2.2-2.8h-0.3V126.4z"/>
				<path class="st0" d="M94.3,127.4h-1.1v-13.3h1.1V127.4z"/>
				<path class="st0" d="M111.5,120.8c0,2.5-0.2,6.8-3,6.8c-2.7,0-3-3.7-3-6.8c0-3.4,0.4-6.8,3-6.8
					C111.3,113.9,111.5,117.8,111.5,120.8z M106.7,120.8c0,2.3,0.1,5.6,1.8,5.6c1.8,0,1.8-3.3,1.8-5.6c0-2.3-0.1-5.6-1.8-5.6
					C106.7,115.1,106.7,118.4,106.7,120.8z"/>
				<path class="st0" d="M127.7,127.4h-1.2l-0.5-2.7h-2.6l-0.4,2.7h-1.2l2.4-13.3h1.1L127.7,127.4z M125.9,123.6l-0.8-5.1
					c-0.1-0.9-0.2-1.8-0.3-2.7h-0.1c-0.1,0.9-0.2,1.8-0.3,2.7l-0.7,5.1H125.9z"/>
				<path class="st0" d="M142.9,127c-0.4,0.3-1,0.5-1.6,0.5c-2.9,0-3.3-4.1-3.3-6.3c0-2.1,0.1-7.3,3.4-7.3c0.5,0,1.1,0.1,1.5,0.4
					v1.4c-0.5-0.3-0.9-0.6-1.4-0.6c-2,0-2.3,3.1-2.3,5.6c0,1.6,0,5.7,2.2,5.7c0.6,0,1.1-0.3,1.5-0.6V127z"/>
				<path class="st0" d="M158,115.3h-1.8v12.2H155v-12.2h-1.8v-1.1h4.8V115.3z"/>
				<path class="st0" d="M169.8,127.4h-1.1v-13.3h1.1V127.4z"/>
				<path class="st0" d="M184.1,127.4h-1l-2.5-13.3h1.2l1.6,9.7c0.1,0.3,0.1,1.2,0.2,1.8h0.1c0-0.6,0.1-1.5,0.2-1.8l1.6-9.7h1.2
					L184.1,127.4z"/>
				<path class="st0" d="M201.3,115.3h-2.7v4.7h2.6v1.1h-2.6v5.2h2.7v1.1h-3.9v-13.3h3.9V115.3z"/>
				<path class="st0" d="M216.8,116.2c-0.5-0.6-1-1.1-1.8-1.1c-1.1,0-1.8,1-1.8,2.1c0,1.5,1,2.3,2.1,3c1,0.8,2.1,1.6,2.1,3.5
					c0,1.9-1.2,3.8-3.1,3.8c-0.7,0-1.4-0.2-1.9-0.7v-1.6c0.5,0.6,1.2,1.1,2,1.1c1.2,0,1.9-1.1,1.9-2.3c0-1.5-1-2.2-2.1-3
					c-1-0.8-2.1-1.6-2.1-3.5c0-1.8,1-3.5,2.8-3.5c0.7,0,1.4,0.3,1.9,0.7V116.2z"/>
			</g>
		</g>
	</g>
</g>
<g>
	<path class="st0" d="M43.8,170.4H33.6v-2.7H57v2.7H46.8v26.3h-3.1V170.4z"/>
	<path class="st0" d="M76.5,183.2v13.5h-2.8v-3.4c-1.3,2.2-3.9,3.6-7.5,3.6c-4.9,0-8-2.6-8-6.3c0-3.4,2.2-6.2,8.4-6.2h6.9v-1.3
		c0-3.7-2.1-5.8-6.2-5.8c-2.8,0-5.5,1-7.2,2.6l-1.3-2.2c2.2-1.9,5.4-2.9,8.9-2.9C73.4,174.8,76.5,177.6,76.5,183.2z M73.6,190.2
		v-3.6h-6.8c-4.2,0-5.6,1.7-5.6,3.9c0,2.5,2,4.1,5.5,4.1C70,194.6,72.4,193.1,73.6,190.2z"/>
	<path class="st0" d="M106.6,185.9c0,6.6-4.6,11.1-10.9,11.1c-3.5,0-6.5-1.5-8.3-4.3v12.1h-2.9V175h2.8v4.3c1.8-2.9,4.8-4.5,8.4-4.5
		C102,174.8,106.6,179.3,106.6,185.9z M103.7,185.9c0-5.1-3.5-8.5-8.1-8.5c-4.6,0-8.1,3.4-8.1,8.5c0,5.1,3.5,8.5,8.1,8.5
		C100.2,194.4,103.7,191,103.7,185.9z"/>
	<path class="st0" d="M135,195.4c-1.2,1-2.9,1.5-4.6,1.5c-4.1,0-6.4-2.3-6.4-6.3v-13.2h-3.9V175h3.9v-4.8h2.9v4.8h6.6v2.5h-6.6v13
		c0,2.6,1.3,4,3.8,4c1.2,0,2.4-0.4,3.2-1.1L135,195.4z"/>
	<path class="st0" d="M137.3,185.9c0-6.5,4.7-11.1,11.1-11.1c6.4,0,11.1,4.6,11.1,11.1s-4.7,11.1-11.1,11.1
		C142,197,137.3,192.3,137.3,185.9z M156.5,185.9c0-5.1-3.4-8.5-8.1-8.5c-4.6,0-8.1,3.4-8.1,8.5s3.5,8.5,8.1,8.5
		C153.1,194.4,156.5,191,156.5,185.9z"/>
	<path class="st0" d="M173.3,194.3l1.3-2.3c1.7,1.4,4.7,2.4,7.7,2.4c4.1,0,5.8-1.4,5.8-3.6c0-5.7-14.1-1.2-14.1-9.8
		c0-3.6,3.1-6.2,8.6-6.2c2.8,0,5.9,0.8,7.7,2l-1.3,2.4c-1.9-1.3-4.2-1.9-6.4-1.9c-3.9,0-5.7,1.5-5.7,3.6c0,5.9,14.1,1.4,14.1,9.8
		c0,3.8-3.3,6.2-9,6.2C178.6,197,175.1,195.8,173.3,194.3z"/>
	<path class="st0" d="M194.4,185.9c0-6.5,4.7-11.1,11.2-11.1c3.7,0,6.8,1.4,8.5,4.3l-2.2,1.5c-1.5-2.2-3.8-3.2-6.3-3.2
		c-4.8,0-8.2,3.4-8.2,8.5c0,5.1,3.5,8.5,8.2,8.5c2.5,0,4.8-1,6.3-3.2l2.2,1.5c-1.7,2.8-4.8,4.3-8.5,4.3
		C199.1,197,194.4,192.4,194.4,185.9z"/>
	<path class="st0" d="M236.4,183.2v13.5h-2.8v-3.4c-1.3,2.2-3.9,3.6-7.5,3.6c-4.9,0-8-2.6-8-6.3c0-3.4,2.2-6.2,8.4-6.2h6.9v-1.3
		c0-3.7-2.1-5.8-6.2-5.8c-2.8,0-5.5,1-7.2,2.6l-1.3-2.2c2.2-1.9,5.4-2.9,8.9-2.9C233.2,174.8,236.4,177.6,236.4,183.2z M233.4,190.2
		v-3.6h-6.8c-4.2,0-5.6,1.7-5.6,3.9c0,2.5,2,4.1,5.5,4.1C229.8,194.6,232.3,193.1,233.4,190.2z"/>
	<path class="st0" d="M264.4,184.1v12.6h-2.9v-12.3c0-4.6-2.4-7-6.5-7c-4.7,0-7.6,2.9-7.6,7.9v11.4h-2.9V175h2.8v4
		c1.6-2.7,4.5-4.2,8.3-4.2C260.8,174.8,264.4,177.9,264.4,184.1z"/>
</g>
</svg>
